<?xml version="1.0" encoding="UTF-8" standalone="no"?>
<svg id="svg2" xmlns:rdf="http://www.w3.org/1999/02/22-rdf-syntax-ns#" xmlns="http://www.w3.org/2000/svg" height="1985pt" width="1717pt" version="1.1" xmlns:cc="http://creativecommons.org/ns#" xmlns:dc="http://purl.org/dc/elements/1.1/" viewBox="0 0 1717 1985">
<g id="g4217" transform="translate(-4e3)">
<path id="rect4214" d="m4206.8 12.978c-4.8736 0.1047-9.7856 3.6531-7.3672 9.5312 6.74 23.11 16.66 45.25 22.75 68.55-72.55 159.34-141.92 320.13-213.24 480.01-4.22 9.37 8.3104 7.5794 13.87 9.8094 8.1608-16.1 14.491-33.259 22.241-49.639 37.9 14.35 68.93 42.71 107.1 56.7 10.34 4.43 26.178 3.2188 28.96-9.8312 11.718-29.72 24.17-59.14 37.79-88.03 31.69 22.64 62.518 46.521 95.118 67.861 4.12 3.64 13.731 5.2397 15.631-1.3703 8.6-27.86 16.19-56.051 25.38-83.741 33.25 93.52 64.77 187.71 98.07 281.21-85.97-2.48-171.97-6.7506-257.99-4.1906-12.261 6.88-9.2112 24.19-0.5912 32.67 25.03 30.47 54.53 56.729 82.17 84.739 133.38 128.34 269.78 253.56 404.51 380.5 27.11 26.67 56.148 51.521 81.51 79.881-4.5112 160.47-7.7504 321.15-12.25 481.51-80.35 40.68-166.14 71.419-242.26 120.06-11.83 4.27-16.041 19.441-10.57 30.041 17.02 15.5 42.53 11.819 63.759 14.309 143.16 1.06 286.36 0.081 429.53 0.4812 33.6-1.58 67.402-0.9109 100.83-5.2109 9.52-1.16 22.56-5.2494 22.11-17.159 0.4904-14.44-14.681-20.99-24.95-27.62-76.662-41.47-157.83-73.91-234.93-114.45-2.6896-160.62-8.1408-321.24-10.861-481.87 118.77-115.14 242.09-225.81 361.82-340.05 110.35 88.3 279.65 90.63 391.39 3.7 50.32-38.02 88.39-92.97 103.62-154.38 17.76-68.08 6.0296-142.74-30.02-202.97-54.538-92.732-160.71-146.13-266.76-146.4-27.032-0.0683-54.056 3.315-80.214 10.38-117.83 27.72-215.84 132.54-224.05 255.05-72.011 2.13-144.01 6.8109-216.04 8.9609 11.55-34.93 22.2-70.15 34.02-105 33.94 9.89 74.07-2.1809 94-32.111 31.34-44.39 5.9696-109.68-42.02-130.04 6.14-21.02 13.611-41.701 19.631-62.711 0.2232-5.9784-5.1704-9.8112-10.439-9.7875-2.76 0.0124-5.4848 1.0825-7.3512 3.4578-7.64 20.61-13.231 41.951-20.941 62.561-37.5-9.16-81.53 8.9991-96.79 45.589-20.21 42.79 4.0808 96.04 45.23 116.08-11.76 37.82-24.07 75.451-36.07 113.19-130.67 6.74-261.42-7.36-392.13-8.15-34.119-96.86-67.959-193.88-100.91-291.14 19.54 18.41 37.62 38.36 57.45 56.45 3.46 4.39 10.779 4.8606 14.29 0.39062 10.44-36.35 23.54-72.23 39.15-106.77 22.2 25.63 43.481 52.341 67.211 76.691 6.06 5.01 12.37 12.16 21.1 10.87 26.73-31.17 55.119-62.53 86.339-89.9 1.82-1.06 4.04-4.7409 6.4-2.7109 16.7 12.54 33.009 25.67 49.87 37.98 3.8984-4.26 12.74-4.0797 12.94-10.53-16.43-14.54-34.76-26.749-51.92-40.409-145.35-106.22-290.71-212.75-437.33-317.04-5.1304-20.21-13.801-39.51-19.97-59.47-0.276-4.6112-4.0424-6.6127-7.8328-6.5312zm156 444.43c0.016-0.00015 0.024 0.005 0.04 0.005-0.016-0.00008-0.024-0.003-0.04-0.003-0.016 0.00013-0.024 0.003-0.04 0.003 0.016-0.0004 0.032-0.005 0.04-0.005z" fill="#f3afe7"/>
<path id="path4" d="m4206.8 12.978c-4.8734 0.1047-9.7859 3.6531-7.3672 9.5312 6.74 23.11 16.66 45.25 22.75 68.55 2.77-5.21 4.4503-14.53 12.42-12.08-5.13-20.21-13.8-39.51-19.97-59.47-0.2756-4.6112-4.0424-6.6127-7.8328-6.5312zm29.272 87.262c-62.12 137.08-122.32 275.03-183.17 412.67-0.17 0.92-1.5403 2.7906-0.02 3.1906 37.05 15.26 68.08 42.2 105.58 56.48 2.18 0.36 5.8003 2.7906 7.0703 0.0406 13.25-33.67 27.229-67.13 43.459-99.47 3.4-4.84 10.891-3.9003 14.791-0.12031 31.08 22.31 61.469 45.641 93.189 67.011 11.71-33.69 18.59-69.601 34-102.09 1.74-7.01 10.65-3.9806 14.62-0.74062 21.35 20.79 41.841 42.5 63.511 62.95 11.51-31.42 21.539-63.54 36.409-93.6 3.41-7.24 9.6106-17.56 19.191-12.65 25.81 29.55 49.569 61.261 78.259 88.191 26.45-29.16 52.56-59.079 83-84.209-135.82-100.31-272.69-199.29-409.89-297.65zm-17.05 210.63c6.96 15.6 11.88 32.289 18.45 48.159 19.3 0.51 38.73-0.94031 57.97 0.42969-14.96 10.9-32 19.35-46.4 30.72 4.62 16.25 12.29 31.55 16.88 47.82-16.26-8.51-30.73-20.269-46.95-28.909-16.06 9.33-31.31 20.089-47.18 29.769 4.87-16.66 13.671-32.509 16.991-49.409-14.9-10.42-30.861-19.461-45.891-29.741 18.47-2.41 39.36 0.92 58.43-1.25 5.71-15.93 11.45-31.879 17.7-47.589zm759.04 111.5c-2.7598 0.0124-5.485 1.0825-7.3516 3.4578-7.64 20.61-13.231 41.951-20.941 62.561 6.45 1.85 12.83 4.0397 19.1 6.4797 6.14-21.02 13.611-41.701 19.631-62.711 0.2232-5.9784-5.1705-9.8112-10.439-9.7875zm-615.34 35.036c-3.857 0.0418-6.0697 9.0075-7.6922 15.422 33.25 93.52 64.77 187.71 98.07 281.21 5.64 0.23 11.269 0.70938 16.909 1.0594-34.12-96.86-67.959-193.88-100.91-291.14-2.5312-4.7469-4.6249-6.5706-6.3781-6.5516zm535.5 192.65c-11.76 37.82-24.07 75.451-36.07 113.19 6.89-0.38 13.82-0.71969 20.73-1.2297 11.55-34.93 22.2-70.15 34.02-105-6.33-2.08-12.59-4.3009-18.68-6.9609zm232.7 325.54c-105.04 1.46-210.07 2.3997-315.12 2.4297-6.96-0.01-13.88 0.08-20.82 0.2-81.95 0.38-163.91 1.1106-245.88 0.84064-6.65-0.04-13.279 0.0297-19.909-0.0203-17.05 0.7-36.18-1.4606-52.05 0.70936 39.82 42.64 85.079 81.831 127.97 122.14 61.47 55.92 122.52 112.42 186.52 165.47 5.51 3.05 11.57 12.539 18.28 7.6094 18.37-12.67 34.841-27.83 51.881-42.2 88.19-78.27 174.44-158.75 257.44-242.51 3.98-4.73 9.6406-8.6103 11.691-14.67z" fill="#d54573"/>
<path id="path10" d="m5273.8 388.59c-7.8125 19.638-14.988 39.574-22.125 59.486-23.838 2.7125-49.95-1.45-73.037 1.5625 18.788 12.85 38.738 24.151 57.363 37.176-4.15 21.125-15.151 40.937-21.238 61.762 19.838-12.1 38.9-25.548 58.975-37.211 20.275 10.8 38.362 25.499 58.688 36.137-5.7375-20.338-15.325-39.463-21.1-59.775 18-14.212 39.3-24.775 58-38.4-24.05-1.7125-48.338 0.10039-72.463-0.53711-8.2125-19.838-14.362-40.699-23.062-60.199zm936.7 253.34c-1.1283 0.021-2.2929 0.28711-3.457 0.85742-10.3 4.775-0.5125 21.55 9.1875 15.213 8.2906-4.3094 2.1683-16.217-5.7305-16.07zm8.1719 22.465c-2.1476-0.017-4.323 0.31405-6.4668 1.0547-17.588 3.8-19.35 29.989-4.5996 38.477 10.275 6.7375 28.125 5.0367 32.4-7.9883 7.4156-14.186-6.3001-31.424-21.334-31.543z" transform="scale(.8)" fill="#fff"/>
<g>
<path id="path16" d="m4853 533.98c15.26-36.59 59.29-54.75 96.79-45.59 6.45 1.85 12.83 4.04 19.1 6.48 47.99 20.36 73.36 85.65 42.02 130.04-19.93 29.93-60.06 42-94 32.11-6.33-2.08-12.59-4.3-18.68-6.96-41.15-20.04-65.44-73.29-45.23-116.08m112.63-19.75c-8.24 3.82-0.41 17.24 7.35 12.17 7.58-3.94 0.1-15.82-7.35-12.17m4.13 18.13c-14.07 3.04-15.48 23.99-3.68 30.78 8.22 5.39 22.5 4.03 25.92-6.39 6.78-12.97-8.52-29.13-22.24-24.39z" fill="#d70007"/>
<path id="path18" d="m5403.2 487.63c-27.032-0.0683-54.056 3.315-80.214 10.38-117.83 27.72-215.84 132.54-224.05 255.05 10.38-1.35 20.841-1.13 31.291-1.75 4.4-49.33 24.629-96.74 56.519-134.55 85.86-104 247.96-127.63 362.66-59.18 75.91 43.09 129.86 126.91 127.7 215.39 0.74 59.98-24.411 118.58-64.611 162.53-95.72 106.27-273.21 118.97-384.62 30.359-7.59 7.32-15.261 14.56-22.911 21.82 110.35 88.3 279.65 90.63 391.39 3.7 50.32-38.02 88.39-92.97 103.62-154.38 17.76-68.08 6.0297-142.74-30.02-202.97-54.538-92.732-160.71-146.13-266.76-146.4zm-50.5 44.67c-8.07 2.78-8.31 14.339-8.55 21.509 3.04 37.25 15.709 73.28 32.539 106.45 9.89 19.66 35.101 14.11 52.231 9.75 25.97-25.94 31.469-65.09 39.539-99.53 2.02-11.69 6.9406-29.91-9.4594-33.52-34.72-8.48-71.03-0.18938-106.3-4.6594zm194.2 32.911c-0.5052 0.008-1.0077 0.0541-1.5015 0.13906-12.83 3.35-21.18 15.08-29.77 24.3-19.99 27.04-38.629 56.309-48.359 88.709 1.85 22.11 29.209 40.941 50.669 32.641 35.9-10.83 68.73-30.22 99.17-51.8 8.61-5.08 7.5797-16.65 2.2797-23.65-17.86-24.84-44.8-41.249-63.48-65.459-1.7938-3.1325-5.4703-4.9341-9.0079-4.8797zm-272.27 6.6469c-1.5587-0.0551-3.2128 0.13905-4.9766 0.6328-31.71 11.87-48.53 45.62-76.63 63.45-13.36 7.56-0.9106 21.8 7.3594 27.68 30.41 23.28 66.15 39.159 102.57 50.539 21.33 7.8 37.75-13.359 44.78-30.419-4.67-35.03-28.929-63.741-49.059-91.441-6.8688-7.4638-13.132-20.057-24.044-20.442zm137.3 116.43c-4.99 13.27-6.01 30.93-12.8 44.78-14.15-8.08-25.151-20.67-39.191-28.85 5.42 14.67 14.06 28.009 19.32 42.809 13.1 1.28 33.841-0.70969 37.611 15.92 0.98 21.57-20.991 33.82-31.881 50.02 5.01-2.45 9.1809-7.7803 14.761-8.5703 5.58 14.52 7.37 30.211 12.45 44.891 5.29-14.84 6.0797-31.03 12.78-45.4 14.56 8.33 26.15 20.84 40.15 30-6.34-14.9-14.96-28.921-19.77-44.431 17.76 0.35 35.41 3.6406 53.12 4.0406-15.03-8.71-31.38-15.26-45.53-25.42 14.61-8.83 30.19-16.029 45-24.409-15.59-0.15-35.341 2.8297-52.691 3.5797 5.21-15.29 13.5-29.32 19.87-44.12-13.95 8.91-25.639 21.751-40.109 29.561-6.98-12.53-6.8406-31.92-13.091-44.4zm231 20.353c-6.4751-0.11971-13.062 0.67187-17.273 0.89687-37.52 5.55-75.44 14.93-108.92 33.13-13.69 15.82-9.4391 48.459 12.261 55.359 30.81 14.8 64.88 21.221 98.38 26.661 10.6 1.71 26.069 3.86 29.659-9.75 9.56-29.4-0.1988-61.221 5.8312-91.261 1.3376-12.106-9.1456-14.836-19.938-15.036zm-468.61 4.9641c-16.143 0.363-18.882 22.859-18.148 36.362 47.4-1.22 94.809-2.8303 142.21-4.0203-35.01-22.15-78.219-26.829-118.61-31.709-1.9678-0.47062-3.7816-0.67036-5.4516-0.6328zm323.3 109.85c-14.8 2.37-23.8 16.619-31.5 27.909 0.46 35.01 23.85 64.321 41.9 92.641 8.43 11.12 17.78 30.671 34.93 23.041 30.44-15.95 51.361-44.921 80.111-63.361 4.47-17.53-16.74-27.41-27.85-36.87-30.3-18.33-62.2-39.16-97.6-43.36zm-147.65 24.541c-34.1 33.55-68.139 67.13-103.11 99.78 11.89 7.23 18.72 31.91 36.15 20.33 29.54-23.93 47.119-59.38 62.839-93.25 3.47-8.44 7.9303-17.719 4.1203-26.859zm64.044 12.002c-2.9736-0.0118-6.1032 0.47968-9.3735 1.5672-9.97 0.6-21.36 1.7203-26.63 11.52-20.27 31.34-28.72 68.921-34.77 105.29-4.54 16.41 15.19 21.14 27.18 22.25 28.22 1.25 56.73-1.1803 84.78 3.2797 9.51 2.29 14-8.5506 13.87-16.091 0.69-33.92-10.5-66.7-23.1-97.78-4.4044-15.204-15.899-29.974-31.956-30.038z" fill="#f8a04e"/>
<path id="path22" d="m5186.8 616.76c85.86-104 247.96-127.63 362.66-59.18 75.91 43.09 129.86 126.91 127.7 215.39 0.74 59.98-24.41 118.58-64.61 162.53-95.72 106.27-273.21 118.97-384.62 30.36 6.58-5.75 12.7-11.99 18.95-18.09 11.89 7.23 18.72 31.91 36.15 20.33 29.54-23.93 47.12-59.38 62.84-93.25 3.47-8.44 7.93-17.72 4.12-26.86 11.34-11.98 22.92-23.79 35.01-35.02 5.01-2.45 9.18-7.78 14.76-8.57 5.58 14.52 7.37 30.21 12.45 44.89 5.29-14.84 6.08-31.03 12.78-45.4 14.56 8.33 26.15 20.84 40.15 30-6.34-14.9-14.96-28.92-19.77-44.43 17.76 0.35 35.41 3.64 53.12 4.04-15.03-8.71-31.38-15.26-45.53-25.42 14.61-8.83 30.19-16.03 45-24.41-15.59-0.15-35.34 2.83-52.69 3.58 5.21-15.29 13.5-29.32 19.87-44.12-13.95 8.91-25.64 21.75-40.11 29.56-6.98-12.53-6.84-31.92-13.09-44.4-4.99 13.27-6.01 30.93-12.8 44.78-14.15-8.08-25.15-20.67-39.19-28.85 5.42 14.67 14.06 28.01 19.32 42.81-26.9-2.21-53.93-0.44-80.88-1.08-35.01-22.15-78.22-26.83-118.61-31.71-20.99-5.02-24.41 20.83-23.6 35.73-8.61 1.01-17.27 1.1-25.9 1.34 4.4-49.33 24.63-96.74 56.52-134.55m165.96-84.46c-8.07 2.78-8.31 14.34-8.55 21.51 3.04 37.25 15.71 73.28 32.54 106.45 9.89 19.66 35.1 14.11 52.23 9.75 25.97-25.94 31.47-65.09 39.54-99.53 2.02-11.69 6.94-29.91-9.46-33.52-34.72-8.48-71.03-0.19-106.3-4.66m192.7 33.05c-12.83 3.35-21.18 15.08-29.77 24.3-19.99 27.04-38.63 56.31-48.36 88.71 1.85 22.11 29.21 40.94 50.67 32.64 35.9-10.83 68.73-30.22 99.17-51.8 8.61-5.08 7.58-16.65 2.28-23.65-17.86-24.84-44.8-41.25-63.48-65.46-2.05-3.58-6.56-5.42-10.51-4.74m-275.75 7.14c-31.71 11.87-48.53 45.62-76.63 63.45-13.36 7.56-0.91 21.8 7.36 27.68 30.41 23.28 66.15 39.16 102.57 50.54 21.33 7.8 37.75-13.36 44.78-30.42-4.67-35.03-28.93-63.74-49.06-91.44-7.85-8.53-14.91-23.76-29.02-19.81m355.96 137.05c-37.52 5.55-75.44 14.93-108.92 33.13-13.69 15.82-9.44 48.46 12.26 55.36 30.81 14.8 64.88 21.22 98.38 26.66 10.6 1.71 26.07 3.86 29.66-9.75 9.56-29.4-0.2-61.22 5.83-91.26 2.14-19.37-25.98-14.74-37.21-14.14m-128.2 113.91c-14.8 2.37-23.8 16.62-31.5 27.91 0.46 35.01 23.85 64.32 41.9 92.64 8.43 11.12 17.78 30.67 34.93 23.04 30.44-15.95 51.36-44.92 80.11-63.36 4.47-17.53-16.74-27.41-27.85-36.87-30.29-18.33-62.14-39.16-97.59-43.36m-92.98 38.11c-9.97 0.6-21.36 1.72-26.63 11.52-20.27 31.34-28.72 68.92-34.77 105.29-4.54 16.41 15.19 21.14 27.18 22.25 28.22 1.25 56.73-1.18 84.78 3.28 9.51 2.29 14-8.55 13.87-16.09 0.69-33.92-10.5-66.7-23.1-97.78-5.22-18.02-20.4-35.43-41.33-28.47z" fill="#fef05c"/>
<path id="path42" d="m4863.5 794.01c170.44-6.94 340.75-17.83 511.38-17.19-33.99 39.65-73.19 74.95-110.32 111.77-145.23 139.47-293.99 275.35-440.38 413.62-5.63 6.76-15.34 12.39-12.28 22.82 4.2 165.51 7.88 331.08 12.2 496.59 3.53 11.01 15.91 14.74 24.9 20.36 68.01 34.1 137.88 64.36 205.95 98.33-84.76 5.47-170.74 3.09-255.98 2.69-83.97-2.16-170.04 5.24-252.86-1.79 70.13-38.09 144.03-68.59 215.86-103.22 7.81-4.66 20.66-8.75 18.84-20.21 4.7-162.6 8.36-325.23 12.22-487.86 4.04-19.28-15.69-30.17-26.31-42.67-173.77-167.9-354.74-328.28-525.94-498.85-2.33-2.78-5.99-4.92-6.68-8.71 152.96 1.1 305.71 8.47 458.56 13.53 55.14 2.2 110.44 4.87 165.58 0.64-2.17 1.82-4.85 3.29-6.06 5.99-18.84 59.53-38.19 118.91-57.23 178.38-81.95 0.38-163.91 1.11-245.88 0.84-20.94-61.83-42.67-123.39-64.05-185.06-2.49-11.36-21.45-6.68-17.9 4.6 20.08 60.33 42.15 120.05 62.04 180.44-17.05 0.7-36.18-1.46-52.05 0.71 39.82 42.64 85.08 81.83 127.97 122.14 61.47 55.92 122.52 112.42 186.52 165.47 5.51 3.05 11.57 12.54 18.28 7.61 18.37-12.67 34.84-27.83 51.88-42.2 88.19-78.27 174.44-158.75 257.44-242.51 3.98-4.73 9.64-8.61 11.69-14.67-105.04 1.46-210.07 2.4-315.12 2.43 17.64-57.45 37.15-114.33 54.67-171.81 2.64-5.75-2.04-10.42-6.94-12.21z" fill="#7bd9fe"/>
</g>
<path id="path44" d="m4476.5 787.47c-5.6042 0.068-11.433 4.4384-9.325 11.136 20.08 60.33 42.151 120.05 62.041 180.44 6.63 0.05 13.259-0.0197 19.909 0.0203-20.94-61.83-42.67-123.39-64.05-185.06-1.0116-4.615-4.7405-6.5825-8.575-6.5359zm383.1 6.33c-0.438 0.01-0.8744 0.0294-1.3094 0.0594-2.17 1.82-4.8509 3.2906-6.0609 5.9906-18.84 59.53-38.19 118.91-57.23 178.38 6.94-0.12 13.86-0.21 20.82-0.2 17.64-57.45 37.15-114.33 54.67-171.81 2.64-5.75-2.0406-10.421-6.9406-12.211-1.3125-0.17251-2.6361-0.23797-3.95-0.20938z" fill-opacity=".98039" fill="#999899"/>
</g>
</svg>
